<?xml version="1.0" encoding="utf-8"?>
<!-- Generator: Adobe Illustrator 19.0.0, SVG Export Plug-In . SVG Version: 6.00 Build 0)  -->
<svg version="1.1" id="Layer_1" xmlns="http://www.w3.org/2000/svg" xmlns:xlink="http://www.w3.org/1999/xlink" x="0px" y="0px"
	 viewBox="0 0 141.7 28.4" style="enable-background:new 0 0 141.7 28.4;" xml:space="preserve">
<style type="text/css">
	.st0{fill:#FFFFFF;}
	.st1{fill:#AF0000;}
</style>
<g id="XMLID_1_">
	<g id="XMLID_29_">
		<g id="XMLID_120_">
			<path id="XMLID_132_" class="st0" d="M33,7h3.2c0,0,0.1,0,0.1,0.1v14.2c0,0,0,0.1-0.1,0.1H33c0,0-0.1,0-0.1-0.1L33,7
				C33,7,33,7,33,7z"/>
			<path id="XMLID_131_" class="st0" d="M54.8,21.3V7c0,0,0,0,0,0h3.4c0,0,0,0,0,0l7.9,9.3c0,0,0,0,0,0c0,0,0,0,0,0V7c0,0,0,0,0,0
				h3.2c0,0,0,0,0,0v14.3c0,0,0,0,0,0h-3.3c0,0,0,0,0,0l-8-9.4c0,0,0,0,0,0c0,0,0,0,0,0v9.3c0,0,0,0,0,0L54.8,21.3
				C54.8,21.3,54.8,21.3,54.8,21.3z"/>
			<path id="XMLID_130_" class="st0" d="M71.5,7h3.2c0,0,0.1,0,0.1,0.1v14.2c0,0,0,0.1-0.1,0.1h-3.2c0,0-0.1,0-0.1-0.1L71.5,7
				C71.4,7,71.5,7,71.5,7z"/>
			<path id="XMLID_129_" class="st0" d="M79.9,21.3h-3.2c0,0-0.1,0-0.1-0.1l0,0V7.1c0,0,0-0.1,0.1-0.1h13.1c0,0,0.1,0,0.1,0.1v3
				c0,0,0,0.1-0.1,0.1H80c0,0-0.1,0-0.1,0.1c0,0,0,0,0,0v2.3c0,0,0,0.1,0.1,0.1h0h8c0,0,0.1,0,0.1,0.1l0,0v3.1c0,0,0,0.1-0.1,0.1h-8
				c0,0-0.1,0-0.1,0.1l0,0L79.9,21.3C79.9,21.3,79.9,21.3,79.9,21.3L79.9,21.3z"/>
			<path id="XMLID_126_" class="st0" d="M119.3,16.6C119.3,16.6,119.3,16.6,119.3,16.6C119.3,16.6,119.3,16.6,119.3,16.6l3,3.8
				c0,0,0,0.1,0,0.1v0.8c0,0,0,0.1-0.1,0.1l0,0h-3.2c-0.1,0-0.2,0-0.2-0.1l-3.6-4.4c-0.1-0.1-0.2-0.2-0.3-0.2h-3.8
				c0,0-0.1,0-0.1,0.1v4.6c0,0,0,0.1-0.1,0.1h0h-3.2c0,0,0,0,0,0l0,0V7.1c0,0,0-0.1,0.1-0.1l0,0c4.2,0,7.9,0,11.3,0
				c1.4,0,2.6,0.8,3,2.1c0.1,0.4,0.2,1,0.2,1.8c0,1.5,0,2.5,0,2.8c-0.1,1-0.5,1.8-1.3,2.4C120.5,16.4,119.9,16.6,119.3,16.6z
				 M119,10.2C119,10.2,119,10.2,119,10.2L119,10.2l-7.9-0.1c0,0-0.1,0-0.1,0.1v3.2c0,0,0,0.1,0.1,0.1h7.8c0,0,0.1,0,0.1-0.1l0,0
				V10.2z"/>
			<path id="XMLID_125_" class="st0" d="M132.9,12.9C132.9,12.9,132.9,12.9,132.9,12.9c1.6-1.8,3.2-3.7,4.9-5.7
				c0.1-0.1,0.2-0.1,0.3-0.1h3.2c0,0,0,0,0,0v14.2c0,0,0,0.1-0.1,0.1h0h-3.2c0,0-0.1,0-0.1-0.1v0V12c0,0,0,0,0,0c0,0,0,0,0,0
				c0,0-0.2,0.2-0.5,0.5c-1.4,1.7-2.8,3.3-4.2,5c-0.1,0.2-0.3,0.2-0.4,0.2c-0.1,0-0.2-0.1-0.4-0.2c-1.4-1.6-2.8-3.3-4.2-5
				c-0.3-0.3-0.4-0.5-0.5-0.5c0,0,0,0,0,0c0,0,0,0,0,0l0,9.3c0,0,0,0.1-0.1,0.1l-3.2,0c0,0-0.1,0-0.1-0.1l0-14.2c0,0,0,0,0,0l3.2,0
				c0.1,0,0.2,0,0.3,0.1C129.7,9.2,131.3,11.1,132.9,12.9C132.8,12.9,132.9,12.9,132.9,12.9z"/>
			<path id="XMLID_124_" class="st0" d="M49.4,10.2C49.4,10.2,49.4,10.2,49.4,10.2L49.4,10.2l-8-0.1c0,0-0.1,0-0.1,0.1v7.9
				c0,0,0,0.1,0.1,0.1h8c0,0,0,0,0,0v-1.9c0,0,0-0.1-0.1-0.1l0,0h-2.9c0,0-0.1,0-0.1-0.1l0,0v-3c0,0,0-0.1,0.1-0.1h6.2
				c0,0,0.1,0,0.1,0.1l0,0c0,0.7,0,2.3,0,4.8c0,1.7-0.9,2.9-2.5,3.4c-0.2,0.1-0.5,0.1-1,0.1c-5,0-7.7,0-8,0c-0.6,0-1.2-0.2-1.7-0.5
				c-0.9-0.6-1.5-1.6-1.5-2.7c0-4,0-6.6,0-7.9c0-2.1,1.6-3.2,3.6-3.2c2.2,0,4.6,0,7.4,0c0.6,0,1,0,1.3,0.1c0.9,0.2,1.6,0.7,2,1.5
				c0.5,0.9,0.5,1.7,0.4,2.7c0,0,0,0,0,0h-3.2c0,0-0.1,0-0.1-0.1V10.2z"/>
			<path id="XMLID_121_" class="st0" d="M105.6,18.2c0,1.8-1.4,3.2-3.2,3.2h-8.2c-1.8,0-3.2-1.4-3.2-3.2v0v-7.9
				C91,8.4,92.5,7,94.2,7h0h8.2c1.8,0,3.2,1.4,3.2,3.2V18.2z M102.3,10.2C102.3,10.2,102.3,10.2,102.3,10.2L102.3,10.2l-7.9-0.1
				c0,0-0.1,0-0.1,0.1v0v7.9c0,0,0,0.1,0.1,0.1h0h7.9c0,0,0.1,0,0.1-0.1v0V10.2z"/>
		</g>
	</g>
	<g id="XMLID_18_">
		<g id="XMLID_58_">
			<path id="XMLID_62_" class="st1" d="M0.5,1.2C0.5,1.2,0.5,1.2,0.5,1.2c1.6,0,3.2,0,4.8,0c0.6,0,1,0,1.1,0.1
				c0.4,0.1,0.7,0.3,1,0.6c1.1,1.1,2,2,2.7,2.7c0.7,0.7,1.1,1.1,1.8,1.8c1.2,1.2,2.5,2.5,3.8,3.8c0,0,0,0,0,0.1l-2.2,2.2
				c0,0,0,0,0,0c-1.9-2-3.1-3.1-3.5-3.5C9.4,8.4,8.4,7.4,6.9,5.9C6.5,5.5,6,5,5.5,4.5C5.4,4.4,5.4,4.4,5.3,4.4c-0.2,0-0.7,0-1.6,0
				c0,0,0,0,0,0v0v1.6c0,0.1,0,0.1,0.1,0.2l8.8,8.8c0,0,0,0.1,0,0.1l-2.2,2.2c0,0,0,0,0,0c0,0,0,0,0,0c-1.9-1.9-4.8-4.8-8.6-8.6
				C1.3,8.3,1,8,0.8,7.8C0.6,7.5,0.5,7.1,0.5,6.6C0.4,6.3,0.4,4.5,0.5,1.2z"/>
			<path id="XMLID_61_" class="st1" d="M18.4,11l4.8-4.8c0,0,0-0.1,0-0.1V4.5c0,0,0,0,0,0h-1.6c0,0-0.1,0-0.1,0l-4.8,4.8
				c0,0-0.1,0-0.1,0L14.3,7c0,0,0,0,0-0.1c0,0,0,0,0,0c2.1-2.1,3.8-3.9,5.1-5.1c0.3-0.3,0.7-0.5,1.1-0.6c0.1,0,0.6,0,1.2,0
				c0.2,0,1.7,0,4.6,0c0,0,0,0,0,0c0,1.8,0,3.6,0,5.4c0,0.4-0.1,0.8-0.3,1.1c-0.1,0.1-0.3,0.3-0.5,0.6c-2.3,2.3-3.9,3.9-4.9,5
				c0,0,0,0-0.1,0c0,0,0,0,0,0L18.4,11C18.4,11.1,18.4,11,18.4,11z"/>
			<path id="XMLID_60_" class="st1" d="M23.2,23.9v-1.6c0-0.1,0-0.1-0.1-0.2l-7.9-7.9c0,0,0,0,0-0.1l0,0c0.9-0.9,1.6-1.5,1.9-1.9
				c0.1-0.1,0.2-0.2,0.3-0.4c0,0,0,0,0,0c0,0,0,0,0,0c2.2,2.2,5,5,8.3,8.4c0.4,0.4,0.6,0.9,0.6,1.5c0,1.9,0,3.7,0,5.4c0,0,0,0,0,0
				c-3.1,0-4.9,0-5.5,0c-0.3,0-0.6-0.1-0.9-0.2c-0.2-0.1-0.4-0.3-0.7-0.6c-1.3-1.3-3-3-4.9-4.9c0,0,0,0,0-0.1l2.2-2.2
				c0,0,0.1,0,0.1,0l4.8,4.8c0,0,0,0,0.1,0L23.2,23.9C23.2,23.9,23.2,23.9,23.2,23.9L23.2,23.9z"/>
			<path id="XMLID_59_" class="st1" d="M3.7,23.9C3.7,23.9,3.7,23.9,3.7,23.9l1.7,0.1c0,0,0.1,0,0.1,0l7.9-7.9c0,0,0,0,0.1,0
				c0,0,0,0,0,0l2.2,2.2c0,0,0,0.1,0,0.1c0,0,0,0,0,0c-0.4,0.4-1.1,1.1-2.3,2.3c-2.8,2.8-4.8,4.8-6,6c-0.3,0.3-0.6,0.4-1,0.5
				c-0.2,0-0.5,0.1-1.1,0.1c-2.2,0-3.8,0-4.8,0c0,0,0,0,0,0c0-2,0-3.7,0-5.1c0-0.6,0.1-1.2,0.5-1.6c0.2-0.2,0.4-0.5,0.8-0.8
				c1.7-1.7,3.2-3.2,4.4-4.5c0,0,0,0,0,0c0.2,0.1,0.3,0.2,0.3,0.3C7,15.9,7.5,16.3,8,16.8c0.2,0.2,0.4,0.4,0.5,0.5c0,0,0,0,0,0
				c0,0,0,0,0,0l-4.8,4.8c0,0,0,0.1,0,0.1V23.9z"/>
		</g>
	</g>
</g>
</svg>
