<?xml version="1.0" encoding="utf-8"?>
<!-- Generator: Adobe Illustrator 19.0.0, SVG Export Plug-In . SVG Version: 6.00 Build 0)  -->
<svg version="1.1" id="Layer_1" xmlns="http://www.w3.org/2000/svg" xmlns:xlink="http://www.w3.org/1999/xlink" x="0px" y="0px"
	 viewBox="0 0 141.7 141.7" style="enable-background:new 0 0 141.7 141.7;" xml:space="preserve">
<style type="text/css">
	.st0{fill:#AF1210;}
</style>
<g id="XMLID_6_">
	<g id="XMLID_45_">
		<path id="XMLID_49_" class="st0" d="M0.7,0.8c0-0.1,0-0.1,0.1-0.1c8.4,0,17,0,25.9,0c3.3,0,5.3,0.1,6.1,0.3c2,0.5,3.7,1.5,5.3,3
			c5.9,6,10.8,10.9,14.6,14.6c4,3.9,5.8,5.8,9.6,9.6C68.9,34.8,75.8,41.8,83,49c0.1,0.1,0.1,0.2,0,0.3l-12,12
			c-0.1,0.1-0.2,0.1-0.2,0C60.3,50.8,54,44.5,52,42.5c-2.8-2.7-8.3-8.2-16.5-16.5c-2.1-2.1-4.6-4.6-7.5-7.4
			c-0.4-0.3-0.8-0.5-1.2-0.5c-1.2,0-4,0-8.5,0c-0.1,0-0.2,0.1-0.2,0.2v0v8.9c0,0.3,0.1,0.6,0.4,0.9L66,75.5c0.1,0.1,0.1,0.3,0,0.4
			L53.9,88c0,0-0.1,0-0.1,0c0,0,0,0,0,0C43.4,77.6,27.9,62,7.3,41.4c-2.2-2.2-3.7-3.9-4.5-5c-1.3-1.7-2-3.9-2-6.4
			C0.7,28.5,0.7,18.8,0.7,0.8z"/>
		<path id="XMLID_48_" class="st0" d="M97.7,53.8L123.4,28c0.1-0.1,0.2-0.3,0.2-0.5v-9.2c0-0.1-0.1-0.3-0.3-0.3h-8.9
			c-0.2,0-0.3,0.1-0.4,0.2L88.2,44.2c-0.1,0.1-0.3,0.1-0.4,0l-12-12c-0.1-0.1-0.1-0.2,0-0.3c0,0,0,0,0,0
			c11.5-11.6,20.7-20.8,27.7-27.8c1.6-1.6,3.5-2.7,5.7-3.2c0.8-0.2,3-0.3,6.6-0.2c1.1,0,9.5,0,25.1,0c0.1,0,0.2,0.1,0.2,0.2
			c0,9.8,0,19.5,0,29c0,2.4-0.5,4.4-1.6,6.2c-0.5,0.8-1.4,1.8-2.7,3.1c-12.3,12.3-21.2,21.3-26.7,26.9c-0.1,0.1-0.2,0.1-0.3,0
			c0,0,0,0,0,0l-12-12C97.6,54,97.6,53.8,97.7,53.8z"/>
		<path id="XMLID_47_" class="st0" d="M123.7,123.4v-8.8c0-0.3-0.1-0.7-0.4-0.9L80.7,71.1c-0.1-0.1-0.1-0.3,0-0.4l0,0
			c5-5,8.4-8.3,10.2-10.1c0.6-0.6,1.2-1.3,1.7-1.9c0.1-0.1,0.2-0.1,0.3,0c0,0,0,0,0,0c11.9,12,26.9,27.1,45,45.2
			c2.1,2.1,3.2,4.8,3.2,8c0,10.2,0,19.9,0,29c0,0.1-0.1,0.2-0.2,0.2c-16.7,0-26.6,0-29.8,0c-1.7,0-3.3-0.4-4.8-1.2
			c-0.9-0.5-2.2-1.5-3.8-3.1c-7.1-7.1-16-16-26.6-26.7c-0.1-0.1-0.1-0.3,0-0.4l11.8-11.8c0.1-0.1,0.4-0.1,0.5,0l25.7,25.7
			c0.1,0.1,0.2,0.1,0.3,0.1h9.3C123.6,123.7,123.7,123.6,123.7,123.4L123.7,123.4z"/>
		<path id="XMLID_46_" class="st0" d="M18.1,123.4c0,0.2,0.1,0.3,0.3,0.3h9.1c0.2,0,0.4-0.1,0.6-0.3l42.7-42.7
			c0.1-0.1,0.2-0.1,0.3,0c0,0,0,0,0,0l12,12c0.1,0.1,0.1,0.3,0,0.4c0,0,0,0,0,0c-1.9,1.9-6.1,6.1-12.5,12.5
			c-15.3,15.3-26,26.1-32.3,32.3c-1.4,1.4-3.2,2.4-5.3,2.9c-0.9,0.2-2.9,0.3-6.1,0.3c-12,0-20.6,0-26,0c-0.1,0-0.2-0.1-0.2-0.2
			c0-10.6,0-19.7,0-27.5c0-3.4,0.6-6.3,2.8-8.8c0.8-1,2.3-2.5,4.3-4.5c9.1-9.2,17.1-17.2,24-24.1c0.1-0.1,0.2-0.1,0.2,0
			c0.8,0.7,1.4,1.3,1.8,1.7c2.4,2.4,4.9,4.9,7.5,7.4c0.9,0.8,2.1,2.4,2.7,2.9c0.1,0.1,0.1,0.2,0.1,0.3c0,0,0,0,0,0L18.2,114
			c-0.1,0.1-0.2,0.3-0.2,0.4V123.4z"/>
	</g>
</g>
</svg>
